<?xml version="1.0" encoding="UTF-8"?>
<svg width="23px" height="18px" viewBox="0 0 23 18" version="1.1" xmlns="http://www.w3.org/2000/svg" xmlns:xlink="http://www.w3.org/1999/xlink">
    <!-- Generator: Sketch 54.1 (76490) - https://sketchapp.com -->
    <title>形状</title>
    <desc>Created with Sketch.</desc>
    <g id="页面1" stroke="none" stroke-width="1" fill="none" fill-rule="evenodd">
        <g id="weixin-brands" transform="translate(0.000000, 0.000000)" fill="#9EA0A6" fill-rule="nonzero">
            <path d="M14.9430825,5.44699844 C15.2000296,5.44699844 15.4489471,5.45904932 15.6978647,5.491185 C15.031408,2.34188797 11.6549619,0 7.81681395,0 C3.51294926,0 0,2.92434724 0,6.64405267 C0,8.78910957 1.17633615,10.5605892 3.12752854,11.9303727 L2.3526723,14.2843115 L5.08273573,12.914528 C6.06234672,13.1073421 6.84121776,13.3041732 7.82082875,13.3041732 C8.0697463,13.3041732 8.30661945,13.2921223 8.555537,13.2720375 C8.39494503,12.7538496 8.30661945,12.203526 8.30661945,11.6331176 C8.30260465,8.22271814 11.233408,5.44699844 14.9430825,5.44699844 Z M10.7476173,3.32202633 C11.3297632,3.32202633 11.7191987,3.7116715 11.7191987,4.3021647 C11.7191987,4.88462397 11.3297632,5.27426914 10.7476173,5.27426914 C10.1534271,5.27426914 9.57128118,4.88462397 9.57128118,4.3021647 C9.57529598,3.7116715 10.1574419,3.32202633 10.7476173,3.32202633 Z M5.27143129,5.27426914 C4.68928541,5.27426914 4.09509514,4.88462397 4.09509514,4.3021647 C4.09509514,3.70765454 4.68928541,3.32202633 5.27143129,3.32202633 C5.86562156,3.32202633 6.25104228,3.7116715 6.25104228,4.3021647 C6.25104228,4.88864093 5.86562156,5.27426914 5.27143129,5.27426914 Z M22.0813953,11.5447445 C22.0813953,8.41553225 18.9538668,5.86877929 15.4409175,5.86877929 C11.7191987,5.86877929 8.80043975,8.41553225 8.80043975,11.5447445 C8.80043975,14.6739567 11.7232135,17.2207097 15.4409175,17.2207097 C16.2157738,17.2207097 17.0026744,17.0158447 17.7935899,16.8230306 L19.9374926,18 L19.3433023,16.0477572 C20.9171036,14.8667708 22.0813953,13.3041732 22.0813953,11.5447445 Z M13.2849704,10.5605892 C12.8955349,10.5605892 12.5101142,10.170944 12.5101142,9.7732649 C12.5101142,9.38361973 12.8995497,8.99799152 13.2849704,8.99799152 C13.8791607,8.99799152 14.2645814,9.38763669 14.2645814,9.7732649 C14.2645814,10.1749609 13.8751459,10.5605892 13.2849704,10.5605892 Z M17.5848203,10.5605892 C17.1953848,10.5605892 16.8099641,10.170944 16.8099641,9.7732649 C16.8099641,9.38361973 17.1993996,8.99799152 17.5848203,8.99799152 C18.1669662,8.99799152 18.5644313,9.38763669 18.5644313,9.7732649 C18.5684461,10.1749609 18.1669662,10.5605892 17.5848203,10.5605892 Z" id="形状"></path>
        </g>
    </g>
</svg>