<?xml version="1.0" encoding="UTF-8"?>
<svg width="22px" height="18px" viewBox="0 0 22 18" version="1.1" xmlns="http://www.w3.org/2000/svg" xmlns:xlink="http://www.w3.org/1999/xlink">
    <!-- Generator: Sketch 54.1 (76490) - https://sketchapp.com -->
    <title>weibo-brands</title>
    <desc>Created with Sketch.</desc>
    <g id="页面1" stroke="none" stroke-width="1" fill="none" fill-rule="evenodd">
        <g id="weibo-brands" fill="#9EA0A6" fill-rule="nonzero">
            <path d="M16.9914551,6.07851562 C17.3087402,5.0765625 16.4320312,4.12470703 15.4300781,4.33762207 C14.5116211,4.5380127 14.2277344,3.16450195 15.133667,2.96828613 C17.2252441,2.51323242 18.9870117,4.51713867 18.3273926,6.50852051 C18.0435059,7.3935791 16.7075684,6.95939941 16.9914551,6.07851562 L16.9914551,6.07851562 Z M8.96748047,17.312915 C4.52966309,17.312915 0,15.1670654 0,11.6226562 C0,9.77321777 1.16894531,7.63989258 3.18537598,5.62346191 C7.34765625,1.46118164 11.6685791,1.41108398 10.4328369,5.38549805 C10.2658447,5.93239746 10.9463379,5.62346191 10.9463379,5.63598633 C14.2653076,4.23325195 16.8119385,4.93461914 15.7056152,7.78183594 C15.5511475,8.17426758 15.7515381,8.23688965 16.052124,8.32873535 C21.717334,10.0946777 17.5049561,17.312915 8.96748047,17.312915 Z M14.9666748,11.2051758 C14.7412354,8.87980957 11.6894531,7.28085937 8.14504395,7.62736816 C4.60480957,7.98640137 1.93293457,10.1447754 2.15837402,12.4701416 C2.38381348,14.7955078 5.4355957,16.394458 8.98000488,16.0479492 C12.5202393,15.688916 15.1921143,13.530542 14.9666748,11.2051758 Z M14.5241455,0.129418945 C13.4428711,0.363208008 13.8227783,1.95380859 14.8706543,1.72836914 C17.8890381,1.09379883 20.498291,3.93266602 19.5339111,6.90512695 C19.2249756,7.91542969 20.7487793,8.44980469 21.0952881,7.40610352 C22.4270508,3.23964844 18.7949707,-0.772338867 14.5241455,0.129418945 Z M11.2469238,13.1130615 C10.5330322,14.7328857 8.4581543,15.6179443 6.69221191,15.0459961 C4.9888916,14.4990967 4.2708252,12.8166504 5.00976562,11.3011963 C5.74870605,9.82331543 7.64406738,8.98835449 9.32651367,9.41835937 C11.0799316,9.86923828 11.9608154,11.5141113 11.2469238,13.1130615 Z M7.64406738,11.8606201 C7.10551758,11.6351807 6.39162598,11.8731445 6.0576416,12.3991699 C5.71113281,12.9377197 5.878125,13.5681152 6.4166748,13.8186035 C6.96357422,14.0690918 7.70251465,13.8311279 8.04902344,13.2800537 C8.38300781,12.7331543 8.20349121,12.098584 7.64406738,11.8606201 Z M9.00505371,11.3011963 C8.79213867,11.2302246 8.52912598,11.3262451 8.40805664,11.5266357 C8.2869873,11.7395508 8.34960937,11.969165 8.56252441,12.0651855 C8.77543945,12.1486816 9.05097656,12.0526611 9.1720459,11.8397461 C9.28894043,11.6226563 9.21796875,11.3846924 9.00505371,11.3011963 L9.00505371,11.3011963 Z" id="形状"></path>
        </g>
    </g>
</svg>