<?xml version="1.0" encoding="UTF-8"?>
<svg width="40px" height="18px" viewBox="0 0 40 18" version="1.1" xmlns="http://www.w3.org/2000/svg" xmlns:xlink="http://www.w3.org/1999/xlink">
    <!-- Generator: Sketch 54.1 (76490) - https://sketchapp.com -->
    <title>zhihu-brands</title>
    <desc>Created with Sketch.</desc>
    <g id="页面1" stroke="none" stroke-width="1" fill="none" fill-rule="evenodd">
        <g id="zhihu-brands" fill="#9EA0A6" fill-rule="nonzero">
            <path d="M10.5852414,2.29034483 L10.5852414,15.7928276 L12.0395172,15.7934483 L12.518069,17.4302069 L15.1255862,15.7934483 L18.1998621,15.7934483 L18.1998621,2.29034483 L10.5852414,2.29034483 Z M16.6524828,14.3273793 L14.9182759,14.3273793 L13.1865517,15.4142069 L12.8712414,14.3298621 L12.1326207,14.3273793 L12.1326207,3.75641379 L16.6524828,3.75641379 L16.6524828,14.3273793 Z M9.2997931,8.46868966 L6.05172414,8.46868966 C6.15972414,6.78662069 6.18827586,5.26655172 6.18827586,3.90910345 L9.36372414,3.90910345 C9.36372414,3.90910345 9.486,2.50882759 8.83117241,2.52434483 L3.33806897,2.52434483 C3.55468966,1.71 3.82655172,0.869586207 4.15241379,2.84217094e-14 C4.15241379,2.84217094e-14 2.65841379,2.84217094e-14 2.14944828,1.33882759 C1.93903448,1.89124138 1.32951724,4.01648276 0.243931034,6.18765517 C0.609517241,6.14793103 1.81862069,6.11441379 2.53055172,4.80910345 C2.66151724,4.44351724 2.68634483,4.39572414 2.84958621,3.90724138 L4.64151724,3.90724138 C4.64151724,4.55896552 4.56703448,8.05841379 4.53724138,8.46558621 L1.29289655,8.46558621 C0.564206897,8.46558621 0.327103448,9.93165517 0.327103448,9.93165517 L4.39758621,9.93165517 C4.12448276,13.0264138 2.65841379,15.6345517 0,17.6964828 C1.2717931,18.0595862 2.53924138,17.6387586 3.16551724,17.082 C3.16551724,17.082 4.59186207,15.7847586 5.37455172,12.7837241 L8.7237931,16.8144828 C8.7237931,16.8144828 9.21475862,15.1454483 8.64682759,14.3323448 C8.17634483,13.7786897 6.90517241,12.2803448 6.36331034,11.7372414 L5.45586207,12.4584828 C5.72648276,11.5907586 5.88972414,10.7484828 5.94434483,9.93413793 L9.77089655,9.93413793 C9.77089655,9.93413793 9.76531034,8.46806897 9.2997931,8.46806897 L9.2997931,8.46868966 L9.2997931,8.46868966 Z M34.8734483,8.36937931 C36.1663448,6.77793103 37.6653103,4.734 37.6653103,4.734 C37.6653103,4.734 36.5077241,3.81537931 35.9658621,4.482 C35.5934483,4.98786207 33.6798621,7.47372414 33.6798621,7.47372414 L34.8734483,8.36937931 L34.8734483,8.36937931 Z M25.5575172,4.70172414 C24.9982759,4.18965517 23.9493103,4.83393103 23.9493103,4.83393103 C23.9493103,4.83393103 26.4022759,8.2502069 26.5015862,8.3997931 L27.7094483,7.54758621 C27.7094483,7.54758621 26.1161379,5.21317241 25.5581379,4.70110345 L25.5575172,4.70110345 L25.5575172,4.70172414 Z M39.7241379,9.13158621 C38.4964138,9.13158621 31.5986897,9.18931034 31.5893793,9.18931034 L31.5893793,2.92034483 C31.887931,2.92034483 32.3602759,2.89551724 33.0076552,2.84586207 C35.5450345,2.69627586 37.3605517,2.59758621 38.4554483,2.54731034 C38.4554483,2.54731034 39.213931,0.859655172 38.4188276,0.471724138 C38.2282759,0.398482759 36.9806897,0.756 36.9806897,0.756 C36.9806897,0.756 26.7256552,1.77951724 22.5583448,1.87634483 C22.6576552,2.4237931 23.0313103,2.93648276 23.5377931,3.0897931 C24.363931,3.3057931 24.9461379,3.19531034 26.5884828,3.14503448 C28.1296552,3.04572414 29.2996552,2.9942069 30.096,2.9942069 L30.096,9.18931034 L21.8116552,9.18931034 C21.8116552,9.18931034 21.9866897,10.574069 23.3950345,10.6075862 L30.0947586,10.6075862 L30.0947586,15.0095172 C30.0947586,15.8766207 29.4002069,16.3744138 28.5753103,16.3204138 C27.7013793,16.3272414 26.9565517,16.2490345 25.9876552,16.208069 C26.1111724,16.4544828 26.3805517,17.1012414 27.1862069,17.5636552 C27.7994483,17.8622069 28.1898621,17.9714483 28.8012414,17.9714483 C30.636,17.9714483 31.635931,16.8988966 31.5875172,15.1591034 L31.5875172,10.6082069 L39.1822759,10.6082069 C39.7831034,10.6082069 39.7222759,9.1322069 39.7222759,9.1322069 L39.7241379,9.13158621 Z" id="形状"></path>
        </g>
    </g>
</svg>